:SAMPLES-PER-SECOND 30
:FULLY-SPECIFIED
:DEGREES
196
root  35.18718509 36.4674816 -14.90034269 8.860994339 -10.41937351 5.89102459
lowerback  -7.09528017 -1.713809967 -0.5895681381
upperback  -3.502439976 -1.762730002 -4.663889885
thorax  0.2277030051 -0.7323921323 -4.620200157
lowerneck  1.847609997 -19.55960083 -12.15890026
upperneck  3.295290232 -26.97259903 14.1171999
head  4.225979805 -13.29459953 4.404870033
lclavicle  0 -4.497500157e-015 -2.743230041e-014
lhumerus  -49.18280029 27.50279999 61.00910187
lradius  5.228657756e-007 -6.507048965e-006 29.95129776
lwrist  4.824992743e-007 -3.790274832e-007 -29.15139961
lhand  -4.444749912e-031 -37.39680099 -10.59200001
lfingers  90 7.125020027 -90
lthumb  95.03052065 -25.41144884 101.5923974
rclavicle  0 -4.497500157e-015 -2.743230041e-014
rhumerus  -3.137422085 -35.51649857 7.676681995
rradius  -5.16745672e-007 2.214343908e-008 38.17919922
rwrist  -0.0001064338358 0.02974390797 -170.798996
rhand  -1.771011023e-031 4.495490074 -8.010800362
rfingers  -90 -7.125020027 -90
rthumb  -85.2932856 -8.124887646 -59.77693282
rfemur  -14.89773083 16.26600075 9.286676407
rtibia  -2.097877264 -3.570542336 22.66438103
rfoot  0.2203127444 -25.0102253 -31.58990097
rtoes  3.822133895 19.64608168 -101.2388187
lfemur  -9.162493706 -18.53687096 -23.95353127
ltibia  3.024385691 -4.567050934 15.48305321
lfoot  1.834787607 -17.84391022 41.48457336
ltoes  -8.67904985 -18.08859366 -116.1804861
197
root  35.18745242 36.46831663 -14.90442171 8.873568535 -10.43653679 5.878087997
lowerback  -7.106239796 -1.70638001 -0.5836757421
upperback  -3.503819942 -1.752689958 -4.665040016
thorax  0.2328689992 -0.731366694 -4.624370098
lowerneck  1.888470054 -19.55859947 -12.18459988
upperneck  3.303970098 -26.97579765 14.11909962
head  4.226280212 -13.29829979 4.411200047
lclavicle  0 -4.497500157e-015 -2.743230041e-014
lhumerus  -49.19990158 27.42840004 61.0379982
lradius  5.228657756e-007 -6.507048965e-006 29.98980141
lwrist  4.824992743e-007 -3.790274832e-007 -29.11009789
lhand  -4.442818134e-031 -37.36420059 -10.59729958
lfingers  90 7.125020027 -90
lthumb  95.01643218 -25.41783031 101.5580081
rclavicle  0 -4.497500157e-015 -2.743230041e-014
rhumerus  -3.244472265 -35.45000076 7.696213245
rradius  -5.16745672e-007 2.214343908e-008 38.16870117
rwrist  -0.0001064338358 0.02974390797 -171
rhand  -1.771169402e-031 4.560190201 -7.976029873
rfingers  -90 -7.125020027 -90
rthumb  -85.2611118 -8.159445688 -59.71140672
rfemur  -14.91623783 16.28473473 9.290243149
rtibia  -2.097155571 -3.571625233 22.65864563
rfoot  0.2186906338 -24.99759674 -31.60490227
rtoes  3.844322007 19.64191679 -101.3048203
lfemur  -9.223443031 -18.5215683 -23.91359711
ltibia  2.984735012 -4.569816113 15.54700851
lfoot  1.838921428 -17.86816978 41.49055862
ltoes  -8.670782695 -18.09245492 -116.1538624
198
root  35.18831148 36.46869509 -14.90653631 8.876111031 -10.46468353 5.867464066
lowerback  -7.10842371 -1.702239513 -0.5736885667
upperback  -3.48961997 -1.749799967 -4.654160023
thorax  0.2494100034 -0.7301912308 -4.618259907
lowerneck  1.838350058 -19.55529976 -12.20740032
upperneck  3.333490133 -26.9708004 14.11320019
head  4.244579792 -13.29349995 4.405600071
lclavicle  0 -4.497500157e-015 -2.743230041e-014
lhumerus  -49.19169998 27.48830032 61.02389908
lradius  5.228657756e-007 -6.507048965e-006 29.97489929
lwrist  4.824992743e-007 -3.790274832e-007 -29.22380066
lhand  -4.44351693e-031 -37.37599945 -10.57310009
lfingers  90 7.125020027 -90
lthumb  95.0165671 -25.39361562 101.5683243
rclavicle  0 -4.497500157e-015 -2.743230041e-014
rhumerus  -3.283321381 -35.47289658 7.679470539
rradius  -5.16745672e-007 2.214343908e-008 38.14910126
rwrist  -0.0001064338358 0.02974390797 -171.052002
rhand  -1.771330443e-031 4.625040054 -8.04957962
rfingers  -90 -7.125020027 -90
rthumb  -85.28406759 -8.100562734 -59.65358261
rfemur  -14.93510914 16.30527115 9.292402267
rtibia  -2.098125935 -3.572299004 22.66473579
rfoot  0.211453408 -25.00957298 -31.610466
rtoes  3.857105289 19.63950584 -101.3428521
lfemur  -9.270768166 -18.40994263 -23.87615967
ltibia  2.949765682 -4.528056145 15.5938406
lfoot  1.844598413 -17.98369408 41.46054077
ltoes  -8.676498845 -18.08978562 -116.1722702
199
root  35.18852174 36.46954814 -14.90905341 8.894067764 -10.47778606 5.853378773
lowerback  -7.083319664 -1.713690042 -0.5853241682
upperback  -3.505249977 -1.76522994 -4.648449898
thorax  0.2183880061 -0.728919208 -4.606170177
lowerneck  1.886459947 -19.52099991 -12.22929955
upperneck  3.342239857 -26.92970276 14.13570023
head  4.240779877 -13.27499962 4.423719883
lclavicle  0 -4.497500157e-015 -2.743230041e-014
lhumerus  -49.22990036 27.49600029 60.98899841
lradius  5.228657756e-007 -6.507048965e-006 29.97960091
lwrist  4.824992743e-007 -3.790274832e-007 -29.17569923
lhand  -4.444850587e-031 -37.39849854 -10.60070038
lfingers  90 7.125020027 -90
lthumb  95.03316592 -25.41983928 101.5948816
rclavicle  0 -4.497500157e-015 -2.743230041e-014
rhumerus  -3.330777168 -35.414505 7.636017799
rradius  -5.16745672e-007 2.214343908e-008 38.12220001
rwrist  -0.0001064338358 0.02974390797 -171.177002
rhand  -1.771342579e-031 4.629889965 -8.004570007
rfingers  -90 -7.125020027 -90
rthumb  -85.26003563 -8.139709526 -59.64565109
rfemur  -14.98329353 16.33673096 9.292129517
rtibia  -2.099581957 -3.55277729 22.69521332
rfoot  0.2020258456 -24.98160172 -31.62044525
rtoes  3.845461386 19.64170224 -101.30821
lfemur  -9.307057381 -18.37364006 -23.83800507
ltibia  2.930016041 -4.481122971 15.6096096
lfoot  1.873295546 -18.08971786 41.52786255
ltoes  -8.664322502 -18.09546901 -116.1330618
200
root  35.1889813 36.46946704 -14.91251217 8.893671036 -10.49351025 5.85662365
lowerback  -7.094129562 -1.713369966 -0.5787193179
upperback  -3.506609917 -1.766129971 -4.63409996
thorax  0.223179996 -0.7276046276 -4.595230103
lowerneck  1.890249968 -19.49810028 -12.23700047
upperneck  3.346110106 -26.8987999 14.13409996
head  4.238289833 -13.26029968 4.428440094
lclavicle  0 -4.497500157e-015 -2.743230041e-014
lhumerus  -49.23740005 27.56629944 60.92350006
lradius  5.228657756e-007 -6.507048965e-006 29.90999985
lwrist  4.824992743e-007 -3.790274832e-007 -29.30139923
lhand  -4.445016664e-031 -37.40129852 -10.5340004
lfingers  90 7.125020027 -90
lthumb  95.01969713 -25.35445091 101.591627
rclavicle  0 -4.497500157e-015 -2.743230041e-014
rhumerus  -3.386318684 -35.32379532 7.609567642
rradius  -5.16745672e-007 2.214343908e-008 38.19070053
rwrist  -0.0001064338358 0.02974390797 -170.9920044
rhand  -1.771415188e-031 4.658800125 -7.983970165
rfingers  -90 -7.125020027 -90
rthumb  -85.24302368 -8.159509052 -59.61601078
rfemur  -15.01221561 16.36065483 9.286286354
rtibia  -2.097461939 -3.540399313 22.73028755
rfoot  0.1848988533 -24.96143913 -31.63841057
rtoes  3.850482288 19.64075599 -101.3231474
lfemur  -9.306395531 -18.36004448 -23.84791946
ltibia  2.927643538 -4.50054121 15.60125446
lfoot  1.844105721 -18.03728485 41.48166656
ltoes  -8.651689878 -18.10135479 -116.0923966
